<svg xmlns="http://www.w3.org/2000/svg" xmlns:xlink="http://www.w3.org/1999/xlink" width="1056" height="407" viewBox="0 0 1056 407">
    <defs>
        <path id="prefix__c" d="M0 0H1056V407H0z"/>
        <path id="prefix__e" d="M0.065 0.725L154.35 0.725 154.35 320.359 0.065 320.359z"/>
        <path id="prefix__g" d="M0 0.725L499.502 0.725 499.502 596 0 596z"/>
        <path id="prefix__i" d="M0.268 0.725L215.506 0.725 215.506 596 0.268 596z"/>
        <linearGradient id="prefix__a" x1="100%" x2="0%" y1="50%" y2="50%">
            <stop offset="0%" stop-color="#EBEFF4"/>
            <stop offset="100%" stop-color="#279594"/>
        </linearGradient>
        <linearGradient id="prefix__b" x1="100%" x2="0%" y1="50%" y2="50%">
            <stop offset="0%" stop-color="#EBEFF4"/>
            <stop offset="100%" stop-color="#279594"/>
        </linearGradient>
    </defs>
    <g fill="none" fill-rule="evenodd">
        <path fill="url(#prefix__a)" d="M0 0H1056V407H0z"/>
        <path stroke="#FFF" stroke-width="2" d="M112 73H944V334H112z"/>
        <path fill="url(#prefix__b)" d="M0 111H1056V248H0z"/>
        <path fill="#FFF" d="M943 109H945V280H943z"/>
        <mask id="prefix__d" fill="#fff">
            <use xlink:href="#prefix__c"/>
        </mask>
        <g mask="url(#prefix__d)">
            <g>
                <path fill="#279594" d="M220.713 121.566l197.231 113.871v34.324L220.713 155.89v-34.324zm-.75 34.757l198.731 114.736v-36.055L219.963 120.267v36.056z" transform="matrix(-1 0 0 1 1057 -175)"/>
                <path fill="#279594" d="M234.855 111.481L377.54 193.86v233.462c-1.115-.643-142.313-82.163-142.685-82.379V111.481zm-.75 233.896l144.185 83.244V193.427l-144.185-83.244v235.194z" transform="matrix(-1 0 0 1 1057 -175)"/>
                <g transform="matrix(-1 0 0 1 1057 -175) translate(130)">
                    <mask id="prefix__f" fill="#fff">
                        <use xlink:href="#prefix__e"/>
                    </mask>
                    <path fill="#279594" d="M53.34 122.77l88.139 50.888V319.06L53.34 268.173V122.77zm-.75 145.836l89.639 51.753V173.225L52.59 121.472v147.134z" mask="url(#prefix__f)"/>
                    <path fill="#279594" d="M.815-68.333L153.6 19.877v185.239L.815 116.906V-68.333zm-.75 185.671l154.285 89.077V19.445L.065-69.632v186.97z" mask="url(#prefix__f)"/>
                </g>
                <path fill="#279594" d="M312.633 75.1l120.462 69.549V253.6l-120.462-69.548V75.1zm-.75 109.385l121.962 70.414V144.216L311.883 73.801v110.684zM320.714 334.698l150.765 87.045v150.04c-1.115-.643-150.393-86.829-150.765-87.045v-150.04zm-.75 150.474l152.265 87.91V421.309l-152.265-87.91v151.773z" transform="matrix(-1 0 0 1 1057 -175)"/>
                <g transform="matrix(-1 0 0 1 1057 -175)">
                    <mask id="prefix__h" fill="#fff">
                        <use xlink:href="#prefix__g"/>
                    </mask>
                    <path fill="#279594" d="M227.786 402.375l138.642 80.046v110.573c-1.114-.644-138.27-79.831-138.642-80.047V402.375zm-.75 111.006l140.142 80.912V481.987l-140.142-80.911v112.305z" mask="url(#prefix__h)"/>
                    <path fill="#279594" d="M343.946 383.183l134.603 77.713v139.169l-134.603-77.714V383.183zm-.75 139.602l136.103 78.579V460.463l-136.103-78.579v140.901z" mask="url(#prefix__h)"/>
                    <path fill="#279594" d="M362.127 383.183c1.116.643 136.253 78.665 136.625 78.879v81.439L362.127 464.62v-81.437zm-.75 81.871L499.502 544.8v-83.171l-138.125-79.745v83.17zM-253.494 76.978l392.231 226.455v144.226l-392.231-226.454V76.978zm-.75 144.66l393.731 227.32V302.999l-393.731-227.32v145.959zM-31.505-79.016l194.24 112.145v165.542L-31.505 86.526V-79.016zm-.75 165.975l195.74 113.011V32.697L-32.255-80.315V86.959z" mask="url(#prefix__h)"/>
                    <path fill="#279594" d="M-64.503 280.968l314.234 181.424v138.259c-1.121-.646-313.86-181.208-314.234-181.424V280.968zm-.75 138.693L250.481 601.95V461.958L-65.253 279.669v139.992z" mask="url(#prefix__h)"/>
                    <path fill="#279594" d="M-45.005 411.461l143.244 82.702v131.988c-1.116-.643-142.871-82.486-143.244-82.702V411.461zm-.75 132.422L98.989 627.45V493.729l-144.744-83.567v133.721z" mask="url(#prefix__h)"/>
                    <path fill="#279594" d="M-76.503 369.463l269.236 155.444v137.24L-76.503 506.704V369.463zm-.75 137.675l270.736 156.308V524.474l-270.736-156.31v138.974z" mask="url(#prefix__h)"/>
                    <path fill="#279594" d="M109.77 549.037L-6.474 616.15v-99.58l116.244-67.113v99.58zm.75-100.879L-7.224 516.137v101.312l117.744-67.978V448.158z" mask="url(#prefix__h)"/>
                </g>
                <path fill="#279594" d="M280.761 357.4l-92.245 53.26V270.227l92.245-53.259V357.4zm.75-141.731l-93.745 54.124v142.166l93.745-54.125V215.669z" transform="matrix(-1 0 0 1 1057 -175)"/>
                <path fill="#279594" d="M370.756 283.889c-.372.215-130.129 75.128-131.243 75.773v-60.92c.372-.215 130.13-75.131 131.243-75.775v60.922zm.75-62.221l-132.743 76.64v62.653l132.743-76.64v-62.653z" transform="matrix(-1 0 0 1 1057 -175)"/>
                <path fill="#279594" d="M339.259 275.03l-71.247 41.134V289.6l71.247-41.134v26.564zm.75-27.863l-72.747 42.001v28.295l72.747-42.001v-28.295z" transform="matrix(-1 0 0 1 1057 -175)"/>
                <g transform="matrix(-1 0 0 1 1057 -175) translate(165)">
                    <mask id="prefix__j" fill="#fff">
                        <use xlink:href="#prefix__i"/>
                    </mask>
                    <path fill="#279594" d="M183.258 253.674l-95.245 54.99v-84.703l95.245-54.99v84.703zm.75-86.002l-96.745 55.856v86.435l96.745-55.855v-86.436zM214.756 539.34L89.513 611.65V463.269l125.243-72.308V539.34zm.75-149.678L88.763 462.836v150.113l126.743-73.176V389.662z" mask="url(#prefix__j)"/>
                    <path fill="#279594" d="M135.26 549.144L1.018 626.648v-80.187c.372-.215 133.128-76.861 134.242-77.506v80.189zm.75-81.488L.268 546.027v81.92l135.742-78.369v-81.922z" mask="url(#prefix__j)"/>
                </g>
                <path fill="#279594" d="M211.764 130.093L89.522 200.67V86.555l122.242-70.577v114.115zm.75-115.414L88.772 86.122v115.847l123.742-71.443V14.679z" transform="matrix(-1 0 0 1 1057 -175)"/>
            </g>
        </g>
        <g fill="#FFF">
            <text font-family="Gotham-Book, Gotham" font-size="26" font-weight="300" transform="translate(91 120)">
                <tspan x="0" y="21">AMSURG </tspan>
            </text>
            <text font-family="Gotham-Black, Gotham" font-size="48" font-weight="700" transform="translate(91 120)">
                <tspan x="0" y="85">Web Style Guide</tspan>
            </text>
        </g>
    </g>
</svg>
