<svg xmlns="http://www.w3.org/2000/svg" width="300" height="86" viewBox="0 0 300 86">
    <g fill="#FFF" fill-rule="nonzero">
        <path d="M18.115 33.947c-.338 0-.476.13-.614.522l-3.644 9.391c-.559 1.27-.901 2.625-1.013 4.008 0 1.183.606 2.035 2.7 2.035h1.014c.813 0 1.012.13 1.012.522 0 .522-.406.66-1.15.66-2.157 0-5.065-.2-7.16-.2-.766 0-4.465.2-7.979.2-.874 0-1.281-.138-1.281-.66 0-.391.269-.514.813-.514.7-.01 1.4-.056 2.095-.139 3.107-.391 4.389-2.618 5.74-5.904L25.61 2.626C26.425.722 26.854 0 27.506 0c.653 0 1.013.591 1.688 2.104 1.627 3.609 12.438 30.4 16.765 40.374 2.57 5.912 4.527 6.834 5.946 7.156.936.18 1.887.27 2.84.269.544 0 .882.061.882.522 0 .46-.614.66-3.115.66-2.502 0-7.366 0-12.768-.138-1.22-.061-2.033-.061-2.033-.522 0-.46.269-.522.951-.591a1.06 1.06 0 0 0 .607-1.536L33.898 34.37a.645.645 0 0 0-.675-.453l-15.108.031zm13.81-3.286c.338 0 .407-.2.338-.392l-6.107-16.217c-.069-.261-.138-.591-.338-.591s-.337.33-.406.59l-6.215 16.126c-.07.26 0 .46.268.46l12.46.024z"/>
        <path d="M63.53 1.705C63.728.59 64.135 0 64.68 0c.545 0 .944.33 1.826 2.035l18.415 37.034 18.414-37.495c.545-1.052.882-1.536 1.489-1.536.606 0 1.012.653 1.22 2.035l6.138 40.574c.613 4.139 1.289 6.043 3.314 6.634a13.9 13.9 0 0 0 4.197.63c.606 0 1.082.061 1.082.46 0 .523-.813.722-1.757.722-1.688 0-11.018-.2-13.719-.4-1.534-.13-1.964-.322-1.964-.72 0-.4.276-.523.767-.723.491-.2.606-.983.338-2.825l-4.051-28.887h-.276L85.38 47.346c-1.534 3.072-1.887 3.678-2.501 3.678-.614 0-1.282-1.313-2.363-3.286-1.62-3.018-6.96-13.054-7.773-14.904-.621-1.352-4.688-9.66-7.05-14.582h-.27L61.91 44.359a24.713 24.713 0 0 0-.207 3.072c0 1.251.883 1.842 2.026 2.103.932.21 1.884.32 2.839.33.545 0 1.02.131 1.02.461 0 .584-.614.722-1.626.722-2.84 0-5.878-.2-7.098-.2-1.22 0-4.526.2-6.69.2-.675 0-1.212-.138-1.212-.722 0-.33.399-.46 1.081-.46.681.012 1.36-.055 2.026-.2 1.888-.392 2.432-2.956 2.77-5.19l6.69-42.77zM123.07 50.295c-1.083-.461-1.282-.768-1.282-2.235 0-3.609.268-7.548.337-8.6.07-1.052.269-1.704.814-1.704.544 0 .675.59.675 1.113.059 1.142.262 2.272.606 3.363 1.488 4.86 5.47 6.634 9.667 6.634 6.077 0 9.054-4.008 9.054-7.486 0-3.218-1.013-6.235-6.621-10.504l-3.07-2.365c-7.434-5.644-9.974-10.244-9.974-15.565 0-7.218 6.215-12.409 15.614-12.409a33.497 33.497 0 0 1 8.985 1.122c.606.13.951.33.951.767 0 .86-.276 2.765-.276 7.879 0 1.45-.2 1.973-.767 1.973-.568 0-.676-.392-.676-1.182a7.797 7.797 0 0 0-1.757-4.331c-1.012-1.252-2.969-3.217-7.365-3.217-5.003 0-8.041 2.818-8.041 6.757 0 3.025 1.534 5.32 7.166 9.46l1.887 1.374c8.18 5.982 11.087 10.504 11.087 16.747a13.133 13.133 0 0 1-6.353 11.426 20.036 20.036 0 0 1-10.741 2.687c-3.975 0-7.013-.453-9.92-1.704zM157.81 20.486c0-9.982 0-11.817-.137-13.92-.138-2.235-.676-3.28-2.908-3.74-.87-.148-1.75-.215-2.632-.2-.767 0-1.15-.13-1.15-.591 0-.46.475-.591 1.488-.591 3.583 0 7.841.2 9.867.2 1.619 0 5.877-.2 8.31-.2 1.012 0 1.488.13 1.488.59 0 .462-.407.592-1.082.592-.657.005-1.312.072-1.957.2-1.826.322-2.363 1.443-2.501 3.74-.138 2.103-.138 3.938-.138 13.92v9.215c0 9.521 1.956 13.522 5.27 16.125a12.753 12.753 0 0 0 8.44 2.695c3.455.06 6.8-1.21 9.346-3.548 3.714-3.609 3.92-9.513 3.92-16.278v-8.209c0-9.982 0-11.817-.137-13.92-.138-2.235-.676-3.28-2.9-3.74a13.632 13.632 0 0 0-2.417-.2c-.768 0-1.151-.13-1.151-.591 0-.46.475-.591 1.427-.591 3.445 0 7.672.2 7.772.2.806 0 5.064-.2 7.673-.2.944 0 1.42.13 1.42.59 0 .462-.407.592-1.22.592-.658.005-1.313.072-1.957.2-1.826.322-2.371 1.443-2.502 3.74-.138 2.103-.138 3.938-.138 13.92v7.026c0 7.287-.767 15.035-6.422 19.757-4.795 4.009-9.66 4.73-14.056 4.73-3.583 0-10.066-.192-15-4.53-3.453-3.018-6.015-7.878-6.015-17.4v-9.583z"/>
        <path d="M210.522 20.486c0-9.982 0-11.817-.138-13.92-.13-2.235-.668-3.28-2.9-3.74a14.429 14.429 0 0 0-2.625-.2c-.767 0-1.15-.13-1.15-.591 0-.46.475-.591 1.488-.591 3.583 0 7.841.2 9.26.2 2.303 0 7.436-.2 9.53-.2 4.259 0 8.785.391 12.438 2.825a11.283 11.283 0 0 1 4.603 8.992c0 4.86-2.094 9.322-8.923 14.712 5.992 7.348 10.657 13.2 14.647 17.261 3.783 3.84 6.552 4.27 7.565 4.47.625.12 1.259.187 1.895.199.537 0 .814.192.814.522 0 .522-.476.66-1.29.66h-6.421c-3.783 0-5.471-.33-7.228-1.251-2.908-1.536-5.478-4.607-9.26-9.652-2.702-3.609-5.81-8.078-6.691-9.06-.31-.34-.764-.511-1.22-.461l-5.878-.131c-.337 0-.537.13-.537.53v.914c0 6.142 0 11.295.33 14.051.207 1.905.614 3.348 2.64 3.61 1.107.15 2.22.241 3.337.276.537 0 .767.192.767.522 0 .46-.468.66-1.35.66-3.913 0-8.916-.2-9.936-.2-1.281 0-5.54.2-8.24.2-.883 0-1.35-.2-1.35-.66 0-.33.268-.522 1.073-.522.821-.002 1.639-.092 2.44-.269 1.35-.261 1.688-1.705 1.957-3.609.337-2.757.337-7.947.337-13.983l.016-11.564zm7.98 5.183c0 .722.13.991.605 1.183 1.671.463 3.4.685 5.133.66 2.709 0 3.584-.26 4.803-1.12 2.026-1.444 3.983-4.462 3.983-9.845 0-9.321-6.353-12.017-10.335-12.017a15.54 15.54 0 0 0-3.584.261c-.475.131-.606.4-.606.922v19.956z"/>
        <path d="M294.46 46.686c0 1.766-.069 1.904-.874 2.365-4.397 2.227-11.018 2.948-16.29 2.948-16.557 0-31.227-7.617-31.227-25.738 0-10.505 5.609-17.853 11.762-21.5C264.322.92 270.33.49 276.008.49c4.01.065 8.01.417 11.969 1.052 1.774.35 3.568.59 5.37.722.768.07.945.33.945.768a85.49 85.49 0 0 0-.476 10.75c0 1.052-.2 1.382-.767 1.382-.568 0-.607-.33-.676-.852a9.034 9.034 0 0 0-2.301-5.452c-2.026-2.035-7.435-5.022-15.077-5.022-3.714 0-8.647.261-13.381 4.07-3.783 3.071-6.215 8.009-6.215 16.125 0 14.113 9.26 24.687 23.517 24.687 1.757 0 4.127 0 5.746-.722 1.013-.461 1.29-1.313 1.29-2.427V39.43c0-3.286 0-5.774-.07-7.747-.069-2.235-.683-3.279-2.908-3.74a13.8 13.8 0 0 0-2.639-.2c-.606 0-1.013-.13-1.013-.521 0-.53.476-.66 1.42-.66 3.514 0 7.772.199 9.798.199 2.025 0 5.677-.2 7.91-.2.875 0 1.35.13 1.35.66 0 .392-.406.523-.874.523-.614.012-1.225.078-1.826.2-1.826.322-2.502 1.443-2.57 3.739-.07 1.973-.07 4.607-.07 7.878v7.126zM5.977 71.925h1.389l5.969 13.215h-1.588l-1.535-3.463H3.07L1.535 85.14H0l5.977-13.215zm3.652 8.447l-2.977-6.72-3 6.689 5.977.03zM15.606 75.45h1.443v1.689a3.667 3.667 0 0 1 3.314-1.889c2.34 0 3.714 1.574 3.714 3.885v6.013h-1.45v-5.66c0-1.796-.975-2.925-2.678-2.925a2.853 2.853 0 0 0-2.9 3.071v5.544h-1.443V75.45zM35.9 85.14c-.537 0-1.695.092-2.171-.276-.476-.369-.407-1.29-.407-1.828v-9c0-2.05.215-2.11 2.578-2.11h5.08c1.074 0 1.61.045 1.872.299.43.414.322 1.597.322 2.088h-6.975v2.91h4.174c1.06 0 1.573.039 1.834.3.43.407.322 1.574.322 2.065H36.2v3.14h4.604c1.143 0 1.703.07 2.003.308.452.43.345 1.59.345 2.104H35.9zM52.312 83.097v-3.839c0-1.72-.276-2.518-2.256-2.518-1.25 0-1.872-.07-2.171.238-.3.307-.238 1.889-.238 2.303v5.851c-.56 0-1.98.108-2.455-.276-.345-.261-.407-.768-.407-1.766v-8.516c2.302 0 2.302 0 2.302 1.313a4.471 4.471 0 0 1 3.552-1.466c3.745 0 4.497 2.157 4.497 5.037v5.682c-2.632 0-2.824-.084-2.824-2.043zM63.928 83.205c-.514 1.16-.767 1.812-2.11 1.92h-1.68l-4.603-10.59c.69 0 2.24-.107 2.884.262.43.253.668.73 1.036 1.72l2.126 5.79 2.255-5.79c.768-2.004.929-1.981 3.96-1.981l-3.868 8.669zM69.913 73.86c-.767 0-1.412-.23-1.412-1.136 0-.906.645-1.137 1.412-1.137.767 0 1.35.215 1.35 1.137 0 .921-.613 1.136-1.35 1.136zm-1.488 9.214v-8.446c.56 0 1.956-.092 2.447.3.322.26.391.729.391 1.743v8.5c-2.647-.031-2.838-.139-2.838-2.12v.023zM76.834 85.163h-4.136c0-.453-.107-1.536.307-1.981.238-.238.729-.276 1.696-.276h2.064c.696.034 1.395.005 2.087-.085.176-.046.13-.822.13-.929 0-.768-1.42-1.029-1.98-1.136-1.91-.392-4.388-.477-4.427-2.995-.069-2.004 1.535-3.21 4.926-3.21h3.737c0 .476.107 1.536-.276 1.958-.238.238-.706.284-1.658.284h-1.872a11.577 11.577 0 0 0-1.933.085c-.154.084-.085.921-.085 1.052 0 .13.17.499.86.714 2.125.599 5.524.384 5.524 3.402 0 1.697-1.542 3.117-4.964 3.117zM92.877 85.27c-4.435 0-5.547-2.664-5.547-5.42 0-2.757 1.182-5.376 5.57-5.376 4.389 0 5.57 2.673 5.57 5.375 0 2.703-1.25 5.422-5.593 5.422zm2.709-5.42c0-1.813-.468-3.072-2.686-3.072-2.708 0-2.693 0-2.693 3.071 0 1.851.522 3.072 2.67 3.072 2.732 0 2.67 0 2.67-3.072h.039zM107.524 83.097v-3.839c0-1.72-.276-2.518-2.255-2.518-1.251 0-1.873-.07-2.172.238-.299.307-.238 1.889-.238 2.303v5.851c-.56 0-1.98.108-2.455-.276-.345-.261-.407-.768-.407-1.766v-8.516c2.302 0 2.302 0 2.302 1.313a4.471 4.471 0 0 1 3.583-1.466c3.745 0 4.497 2.157 4.497 5.037v5.682c-2.663 0-2.855-.084-2.855-2.043zM128.41 85.125c-1.336-.13-1.251-.93-1.251-2.074v-3.463h-5.824v5.552c-2.731 0-2.946-.084-2.946-2.089V71.925c2.708 0 2.923.062 2.923 2.066v3.232h5.831v-5.298c2.732 0 2.962.062 2.962 2.066V85.14c-.92 0-1.374 0-1.696-.015zM139.98 80.71h-5.18c0 1.336.967 2.196 2.602 2.196h2.301c1.91 0 2.041.13 2.041 2.257h-4.281c-4.412 0-5.57-2.58-5.57-5.375s1.181-5.375 5.616-5.375c3.399 0 5.072 2.05 5.072 4.607.023 1.881-.215 1.69-2.601 1.69zm-2.64-4.07c-2.47 0-2.532 0-2.532 2.303h4.964a2.228 2.228 0 0 0-2.432-2.303zM148.666 74.482c4.438 0 5.554 1.777 5.554 4.635v5.993c-2.278 0-2.348-.015-2.348-1.73a4.235 4.235 0 0 1-3.846 1.838c-2.34 0-4.548-.996-4.548-3.352 0-2.232 1.506-3.205 4.806-3.205h3.042c0-1.49-.78-1.862-2.606-1.862h-2.184c-1.88 0-1.966-.154-1.966-2.317h4.096zm-.056 6.143c-1.982 0-2.063 0-2.063 1.276 0 .6.516 1.028 1.982 1.028 2.622 0 2.622-.063 2.622-2.283l-2.541-.021zM155.962 83.051V70.528c.56 0 1.956-.108 2.455.276.322.261.407.768.407 1.766v12.57c-2.67 0-2.862-.108-2.862-2.089zM164.962 76.916h-.768v5.022c0 .599.177.898.714.898.99 0 1.872-.061 1.956 1.014.056.443.077.89.062 1.336-3.836.238-5.609-.584-5.609-3.248v-5.022h-1.42l.062-1.866c1.358 0 1.358 0 1.358-.906v-2.303h2.877v2.695h2.9c-.038 2.25-.207 2.38-2.132 2.38zM175.703 83.074v-3.747c0-1.827-.284-2.495-2.301-2.495-2.371 0-2.371.046-2.394 2.495v5.813c-2.624 0-2.824-.108-2.824-2.066V70.528c2.624 0 2.824.107 2.824 2.088v3.402a3.567 3.567 0 0 1 3.03-1.536c3.745 0 4.497 2.112 4.497 5.13v5.59c-2.701-.062-2.832-.146-2.832-2.128zM185.425 85.163c-4.405 0-5.586-2.519-5.586-5.29 0-2.772 1.22-5.299 5.547-5.299h3.223c0 .476.092 1.613-.3 2.004-.253.254-.705.323-1.695.323h-1.297c-.407 0-1.972-.108-2.302.253-.33.361-.299 2.304-.299 2.695 0 1.828.606 3.072 2.624 3.072h1.205c1.94 0 2.064.13 2.064 2.257l-3.184-.015zM197.9 83.42a4.15 4.15 0 0 1-3.782 1.812c-2.302 0-4.473-.99-4.473-3.332 0-2.22 1.48-3.187 4.734-3.187h2.984c0-1.482-.767-1.85-2.555-1.85h-2.156c-1.849 0-1.933-.154-1.933-2.304h4.02c4.366 0 5.463 1.766 5.463 4.607v5.959c-2.248.015-2.302 0-2.302-1.705zm-3.184-2.949c-2.064 0-2.148 0-2.148 1.421 0 .668.537 1.144 2.064 1.144 2.731 0 2.731-.069 2.731-2.542l-2.647-.023zM207.928 74.528v1.336c-.107 1.098-.767 1.014-1.695 1.014-1.12 0-1.42.107-1.535 1.075-.024.453-.024.906 0 1.359v5.828c-2.67 0-2.862-.084-2.862-2.043v-8.546c2.302 0 2.302.108 2.302 1.536.56-.89 1.765-1.605 3.79-1.559zM216.207 80.71h-5.21c0 1.336.967 2.196 2.61 2.196h2.3c1.92 0 2.05.13 2.05 2.257h-4.282c-4.412 0-5.57-2.58-5.57-5.375s1.181-5.375 5.609-5.375c3.399 0 5.079 2.05 5.079 4.607.038 1.881-.2 1.69-2.586 1.69zm-2.647-4.07c-2.47 0-2.54 0-2.54 2.303h4.972a2.228 2.228 0 0 0-2.432-2.303zM226.918 83.29l.906-1.076a6.182 6.182 0 0 0 4.45 1.836c1.734 0 2.885-.93 2.885-2.204 0-1.206-.645-1.897-3.369-2.465-2.984-.653-4.358-1.612-4.358-3.747 0-2.035 1.803-3.54 4.266-3.54a6.764 6.764 0 0 1 4.558 1.597l-.86 1.129a5.668 5.668 0 0 0-3.736-1.413c-1.688 0-2.762.93-2.762 2.096 0 1.221.667 1.912 3.521 2.519 2.855.607 4.22 1.69 4.22 3.67 0 2.227-1.849 3.67-4.427 3.67a7.577 7.577 0 0 1-5.294-2.073zM238.719 80.433a4.997 4.997 0 0 1 4.987-4.722 4.997 4.997 0 0 1 4.987 4.722 4.97 4.97 0 0 1-5.018 5.006 4.9 4.9 0 0 1-4.956-5.006zm8.516 0a3.618 3.618 0 0 0-3.552-3.74 3.528 3.528 0 0 0-3.507 3.702 3.595 3.595 0 0 0 3.538 3.724 3.528 3.528 0 0 0 3.521-3.686zM251.332 71.649h1.42v13.53h-1.42zM255.852 81.546v-5.95h1.42v5.597c0 1.782.966 2.895 2.654 2.895a2.83 2.83 0 0 0 2.87-3.002v-5.49h1.403v9.582h-1.404v-1.666a3.66 3.66 0 0 1-3.276 1.874c-2.317 0-3.667-1.559-3.667-3.84zM267.836 82.637v-5.782h-1.335v-1.26h1.335v-2.894h1.42v2.895h3.069v1.259h-3.07v5.597a1.421 1.421 0 0 0 1.612 1.598c.484.003.96-.113 1.389-.338v1.228a3.642 3.642 0 0 1-1.719.407 2.439 2.439 0 0 1-2.7-2.71zM274.78 71.925h1.627v1.536h-1.627v-1.536zm.092 3.67h1.427v9.583h-1.427v-9.582zM278.946 80.433a4.997 4.997 0 0 1 4.988-4.722 4.997 4.997 0 0 1 4.987 4.722 4.97 4.97 0 0 1-5.018 5.006 4.909 4.909 0 0 1-4.957-5.006zm8.517 0a3.618 3.618 0 0 0-3.576-3.778 3.52 3.52 0 0 0-3.498 3.701 3.595 3.595 0 0 0 3.537 3.724 3.528 3.528 0 0 0 3.537-3.647zM291.43 75.596h1.427v1.666a3.62 3.62 0 0 1 3.307-1.874c2.301 0 3.667 1.536 3.667 3.84v5.95h-1.427v-5.597c0-1.782-.959-2.895-2.647-2.895a2.815 2.815 0 0 0-2.87 3.002v5.49h-1.427l-.03-9.582zM84.476 73.86c-.768 0-1.412-.23-1.412-1.136 0-.906.644-1.137 1.412-1.137.767 0 1.35.215 1.35 1.137 0 .921-.614 1.136-1.35 1.136zm-1.496 9.214v-8.446c.56 0 1.964-.092 2.455.3.322.26.391.729.391 1.743v8.5c-2.647-.031-2.846-.139-2.846-2.12v.023z"/>
    </g>
</svg>
